<?xml version="1.0" encoding="utf-8"?>
<svg width="512" height="512" version="1.1" viewBox="0 0 1866.7 1866.7" xmlns="http://www.w3.org/2000/svg">
  <path id="Exhaustion" d="m1386.6 927.51c-45.022-74.929-53.962-138.15-52.032-187.68 3.0229-77.823 32.802-216.94 64.317-287.69l81.875-159.63c29.907-52.675 26.434-56.149 64.896-111.65 38.59-56.149 110.5-157.25 181.24-180.09 0 17.366-2.1224 41.42-6.4317 57.885l-89.464 194.69c-46.18 121.94-63.738 165.62-87.728 293.54 0 0-30.615 179.89-11.32 212.44 12.027 19.681 129.41 142.65 129.41 142.65 78.402 88.886 47.402 246.53 46.051 288.72-7.3964 51.968-18.523 103.94-33.573 154.3-30.422 102.01-119.44 253.41-176.49 346.09-33.445 54.412-113.39 161.63-175.65 174.88 0-33.252 14.471-90.815 24.891-106.12 139.12-251.61 186.52-543.48 172.11-649.6-28.621-82.711-75.958-118.41-132.11-182.72zm-389.89-0.7718c-45.086-74.993-53.962-138.15-52.097-187.74 3.0229-77.759 32.802-216.94 64.317-287.62l81.875-159.63c29.972-52.74 26.434-56.213 64.896-111.65 38.59-56.149 110.5-157.32 181.24-180.09 0 17.301-2.1225 41.356-6.4317 57.885l-89.4 194.69c-46.179 121.88-63.802 165.62-87.728 293.48 0 0-30.679 179.89-11.384 212.44 12.092 19.745 129.47 142.72 129.47 142.72 78.338 88.821 47.402 246.53 45.986 288.72-7.3321 51.904-18.523 103.87-33.509 154.3-30.486 101.94-119.44 253.41-176.49 346.09-33.509 54.412-113.45 161.63-175.71 174.88 0.0643-33.252 14.536-90.88 24.955-106.12 139.05-251.67 186.52-543.48 172.05-649.6-28.557-82.776-75.958-118.41-132.04-182.72zm-393.94 1.6079c-45.086-74.993-53.962-138.15-52.032-187.74 2.9586-77.759 32.737-216.94 64.317-287.62l81.811-159.63c29.972-52.74 26.434-56.213 64.896-111.72 38.59-56.084 110.56-157.25 181.31-180.09-0.0643 17.366-2.1868 41.42-6.4317 57.885l-89.465 194.75c-46.179 121.88-63.802 165.62-87.728 293.48 0 0-30.679 179.89-11.384 212.44 12.092 19.681 129.47 142.72 129.47 142.72 78.402 88.821 47.401 246.53 45.986 288.72-7.3321 51.904-18.523 103.87-33.573 154.23-30.422 102.01-119.37 253.47-176.42 346.15-33.509 54.412-113.45 161.63-175.65 174.81 0-33.187 14.407-90.815 24.891-106.12 139.12-251.61 186.52-543.48 172.05-649.6-28.557-82.711-75.958-118.34-132.04-182.66zm-397.99-0.83611c-45.022-74.929-53.962-138.15-52.032-187.68 3.0229-77.823 32.802-216.94 64.317-287.69l81.875-159.63c29.907-52.675 26.434-56.149 64.896-111.65 38.59-56.149 110.5-157.25 181.24-180.09 0 17.366-2.1225 41.42-6.4317 57.885l-89.465 194.69c-46.179 121.94-63.738 165.62-87.728 293.54 0 0-30.615 179.89-11.32 212.44 12.027 19.681 129.41 142.65 129.41 142.65 78.402 88.886 47.401 246.53 46.051 288.72-7.3964 51.968-18.523 103.94-33.573 154.3-30.422 102.01-119.44 253.41-176.49 346.09-33.445 54.412-113.39 161.63-175.65 174.88 0-33.252 14.471-90.815 24.955-106.12 139.05-251.61 186.52-543.48 171.98-649.6-28.557-82.711-75.894-118.41-132.04-182.72z" style="fill: var(--icon-fill, #fff);"/>
  <path id="Numeral" d="M 660.575 539.59 C 653.328 539.59 594.503 538.129 592.081 539.132 C 586.308 541.523 585.952 1317.825 585.952 1327.902 C 585.952 1344.656 420.721 1370.878 420.721 1329.678 C 420.721 1301.953 429.436 537.914 426.793 537.914 C 418.177 537.914 378.786 533.964 360.29 523.081 C 304.096 490.175 299.837 413.721 360.29 382.531 C 374.232 375.326 401.851 372.938 424.97 372.297 C 445.936 371.715 633.095 374.721 633.095 374.721 L 1450.585 374.721 C 1477.721 374.79 1501.833 373.278 1525.877 388.529 C 1569.637 416.282 1577.536 474.263 1538.998 510.539 C 1512.894 535.132 1471.126 538.017 1436.848 539.598 L 1268.586 903.116 L 1422.937 1329.608 L 1450.588 1329.608 C 1477.724 1329.677 1501.836 1328.165 1525.88 1343.416 C 1573.143 1373.368 1571.838 1445.156 1525.88 1475.656 C 1500.187 1492.692 1446.81 1494.41 1416.24 1494.478 L 422.821 1494.478 C 395.067 1494.34 365.528 1493.791 341.003 1478.816 C 286.939 1445.841 291.61 1366.426 347.392 1337.646 C 362.27 1329.998 365.855 1328.68 396.864 1328.822 C 409.46 1328.879 524.507 1329.177 588.491 1329.389 C 625.905 1329.513 656.153 1329.608 660.581 1329.608 L 660.581 539.598 L 660.575 539.59 Z M 887.275 539.59 L 825.448 539.59 L 825.448 1329.6 L 888.286 1329.6 L 1056.138 911.595 L 887.278 539.59 L 887.275 539.59 Z M 1271.975 539.59 L 1052.145 539.59 L 1165.155 829.861 L 1271.975 539.59 Z" fill="#c70000" stroke-width="256.22" style="paint-order: stroke; stroke: var(--icon-stroke, #000);"/>
  <polygon style="stroke: rgb(0, 0, 0);" points="1046.529 1330.364 1264.599 1330.364 1156.643 1041.045"/>
</svg>
