<?xml version="1.0" encoding="utf-8"?>
<svg width="512" height="512" version="1.1" viewBox="0 0 1866.7 1866.7" xmlns="http://www.w3.org/2000/svg">
  <path id="Exhaustion" d="m1386.6 927.51c-45.022-74.929-53.962-138.15-52.032-187.68 3.0229-77.823 32.802-216.94 64.317-287.69l81.875-159.63c29.907-52.675 26.434-56.149 64.896-111.65 38.59-56.149 110.5-157.25 181.24-180.09 0 17.366-2.1224 41.42-6.4317 57.885l-89.464 194.69c-46.18 121.94-63.738 165.62-87.728 293.54 0 0-30.615 179.89-11.32 212.44 12.027 19.681 129.41 142.65 129.41 142.65 78.402 88.886 47.402 246.53 46.051 288.72-7.3964 51.968-18.523 103.94-33.573 154.3-30.422 102.01-119.44 253.41-176.49 346.09-33.445 54.412-113.39 161.63-175.65 174.88 0-33.252 14.471-90.815 24.891-106.12 139.12-251.61 186.52-543.48 172.11-649.6-28.621-82.711-75.958-118.41-132.11-182.72zm-389.89-0.7718c-45.086-74.993-53.962-138.15-52.097-187.74 3.0229-77.759 32.802-216.94 64.317-287.62l81.875-159.63c29.972-52.74 26.434-56.213 64.896-111.65 38.59-56.149 110.5-157.32 181.24-180.09 0 17.301-2.1225 41.356-6.4317 57.885l-89.4 194.69c-46.179 121.88-63.802 165.62-87.728 293.48 0 0-30.679 179.89-11.384 212.44 12.092 19.745 129.47 142.72 129.47 142.72 78.338 88.821 47.402 246.53 45.986 288.72-7.3321 51.904-18.523 103.87-33.509 154.3-30.486 101.94-119.44 253.41-176.49 346.09-33.509 54.412-113.45 161.63-175.71 174.88 0.0643-33.252 14.536-90.88 24.955-106.12 139.05-251.67 186.52-543.48 172.05-649.6-28.557-82.776-75.958-118.41-132.04-182.72zm-393.94 1.6079c-45.086-74.993-53.962-138.15-52.032-187.74 2.9586-77.759 32.737-216.94 64.317-287.62l81.811-159.63c29.972-52.74 26.434-56.213 64.896-111.72 38.59-56.084 110.56-157.25 181.31-180.09-0.0643 17.366-2.1868 41.42-6.4317 57.885l-89.465 194.75c-46.179 121.88-63.802 165.62-87.728 293.48 0 0-30.679 179.89-11.384 212.44 12.092 19.681 129.47 142.72 129.47 142.72 78.402 88.821 47.401 246.53 45.986 288.72-7.3321 51.904-18.523 103.87-33.573 154.23-30.422 102.01-119.37 253.47-176.42 346.15-33.509 54.412-113.45 161.63-175.65 174.81 0-33.187 14.407-90.815 24.891-106.12 139.12-251.61 186.52-543.48 172.05-649.6-28.557-82.711-75.958-118.34-132.04-182.66zm-397.99-0.83611c-45.022-74.929-53.962-138.15-52.032-187.68 3.0229-77.823 32.802-216.94 64.317-287.69l81.875-159.63c29.907-52.675 26.434-56.149 64.896-111.65 38.59-56.149 110.5-157.25 181.24-180.09 0 17.366-2.1225 41.42-6.4317 57.885l-89.465 194.69c-46.179 121.94-63.738 165.62-87.728 293.54 0 0-30.615 179.89-11.32 212.44 12.027 19.681 129.41 142.65 129.41 142.65 78.402 88.886 47.401 246.53 46.051 288.72-7.3964 51.968-18.523 103.94-33.573 154.3-30.422 102.01-119.44 253.41-176.49 346.09-33.445 54.412-113.39 161.63-175.65 174.88 0-33.252 14.471-90.815 24.955-106.12 139.05-251.61 186.52-543.48 171.98-649.6-28.557-82.711-75.894-118.41-132.04-182.72z" style="fill: var(--icon-fill, #fff);"/>
  <path id="Numeral" d="M 660.575 1327.11 C 653.328 1327.11 594.503 1328.571 592.081 1327.568 C 586.308 1325.177 585.952 548.875 585.952 538.798 C 585.952 522.044 420.721 495.822 420.721 537.022 C 420.721 564.747 429.436 1328.786 426.793 1328.786 C 418.177 1328.786 378.786 1332.736 360.29 1343.619 C 304.096 1376.525 299.837 1452.979 360.29 1484.169 C 374.232 1491.374 401.851 1493.762 424.97 1494.403 C 445.936 1494.985 633.095 1491.979 633.095 1491.979 L 1450.585 1491.979 C 1477.721 1491.91 1501.833 1493.422 1525.877 1478.171 C 1569.637 1450.418 1577.536 1392.437 1538.998 1356.161 C 1512.894 1331.568 1471.126 1328.683 1436.848 1327.102 L 1278.848 537.092 L 1450.588 537.092 C 1477.724 537.023 1501.836 538.535 1525.88 523.284 C 1573.143 493.332 1571.838 421.544 1525.88 391.044 C 1500.187 374.008 1446.81 372.29 1416.24 372.222 L 422.821 372.222 C 395.067 372.36 365.528 372.909 341.003 387.884 C 286.939 420.859 291.61 500.274 347.392 529.054 C 362.27 536.702 365.855 538.02 396.864 537.878 C 409.46 537.821 524.507 537.523 588.491 537.311 C 625.905 537.187 656.153 537.092 660.581 537.092 L 660.581 1327.102 L 660.575 1327.11 Z M 887.275 1327.11 L 825.448 1327.11 L 825.448 537.1 L 1045.278 537.1 L 887.278 1327.11 L 887.275 1327.11 Z M 1271.975 1327.11 L 1052.145 1327.11 L 1165.155 778.77 L 1271.975 1327.11 Z" fill="#c70000" stroke-width="256.22" style="paint-order: stroke; stroke: var(--icon-stroke, #000); transform-box: fill-box; transform-origin: 50% 50%;" transform="matrix(-1, 0, 0, -1, 0.000016, -0.000048)"/>
</svg>
